<svg width="40" height="40" viewBox="0 0 40 40" fill="none" xmlns="http://www.w3.org/2000/svg">
<circle cx="20" cy="20" r="20" fill="white"/>
<path d="M22.1143 15.0041C22.6689 14.3887 22.6196 13.4402 22.0041 12.8857C21.3887 12.3311 20.4402 12.3804 19.8857 12.9959L22.1143 15.0041ZM15 20.6584L13.8857 19.6543C13.3714 20.225 13.3714 21.0919 13.8857 21.6626L15 20.6584ZM19.8857 28.321C20.4402 28.9365 21.3887 28.9858 22.0041 28.4312C22.6196 27.8767 22.6689 26.9282 22.1143 26.3128L19.8857 28.321ZM19.8857 12.9959L13.8857 19.6543L16.1143 21.6626L22.1143 15.0041L19.8857 12.9959ZM13.8857 21.6626L19.8857 28.321L22.1143 26.3128L16.1143 19.6543L13.8857 21.6626Z" fill="#6A19F5"/>
</svg>
