<svg width="40" height="40" viewBox="0 0 40 40" fill="none" xmlns="http://www.w3.org/2000/svg">
<circle r="20" transform="matrix(-1 0 0 1 20 20)" fill="white"/>
<path d="M17.0536 15.5588C16.4991 14.9434 16.5484 13.9949 17.1638 13.4404C17.7793 12.8858 18.7277 12.9351 19.2823 13.5506L17.0536 15.5588ZM24.168 21.2131L25.2823 20.209C25.7965 20.7797 25.7965 21.6466 25.2823 22.2173L24.168 21.2131ZM19.2823 28.8757C18.7277 29.4911 17.7793 29.5405 17.1638 28.9859C16.5484 28.4313 16.4991 27.4829 17.0536 26.8675L19.2823 28.8757ZM19.2823 13.5506L25.2823 20.209L23.0536 22.2173L17.0536 15.5588L19.2823 13.5506ZM25.2823 22.2173L19.2823 28.8757L17.0536 26.8675L23.0536 20.209L25.2823 22.2173Z" fill="#6A19F5"/>
</svg>
