<svg width="1920" height="866" viewBox="0 0 1920 866" fill="none" xmlns="http://www.w3.org/2000/svg">
<path d="M463 3.93585C280.2 -16.2456 81.3333 46.915 3.5 63.7329L-5 840.158C141.5 866.787 181.5 879.867 514.5 844.362C847.5 808.858 973.5 899.488 1328 844.362C1633.34 796.881 1837.33 806.055 1925 828.478V47.85C1767 18.7302 1509.6 1.88115 1370 47.85C1195.5 105.311 691.5 29.1626 463 3.93585Z" fill="#74C5FF"/>
<path d="M490.5 38.5061C307.7 18.3247 76.3333 46.9156 -1.5 63.7334L-4.5 832.216C425 856.509 380.5 785.735 683 814.931C910.5 836.889 1103.5 820.07 1442.5 771.485C1713.7 732.617 1835.33 806.054 1923 828.478V70.2737C1765 41.1539 1520 -3.07089 1274.5 38.5056C992 86.3481 719 63.7329 490.5 38.5061Z" fill="#2580C1"/>
</svg>
